<?xml version="1.0" encoding="UTF-8" standalone="no"?>
<svg width="1000" height="920" viewBox="0 0 250 230" version="1.1" xmlns="http://www.w3.org/2000/svg">
  <title>Isaac Demo Floor Encoding</title>
  <rect style="fill:#888888;stroke:#999999;stroke-width:1;paint-order:fill stroke;" id="floor" width="220" height="200" x="15" y="15" />
  <g id="floortile-grid" style="stroke:#999999;stroke-width=1;">
    <path d="M 35,15 v 200" id="grid-x-0" />
    <path d="M 55,15 v 200" id="grid-x-half-0" />
    <path d="M 75,15 v 200" id="grid-x-1" />
    <path d="M 95,15 v 200" id="grid-x-half-1" />
    <path d="M 115,15 v 200" id="grid-x-2" />
    <path d="M 135,15 v 200" id="grid-x-half-2" />
    <path d="M 155,15 v 200" id="grid-x-3" />
    <path d="M 175,15 v 200" id="grid-x-half-3" />
    <path d="M 195,15 v 200" id="grid-x-4" />
    <path d="M 215,15 v 200" id="grid-x-half-4" />
    <path d="M 15,35 h 220" id="grid-y-0" />
    <path d="M 15,55 h 220" id="grid-y-1" />
    <path d="M 15,75 h 220" id="grid-y-2" />
    <path d="M 15,95 h 220" id="grid-y-3" />
    <path d="M 15,115 h 220" id="grid-y-4" />
    <path d="M 15,135 h 220" id="grid-y-5" />
    <path d="M 15,155 h 220" id="grid-y-6" />
    <path d="M 15,175 h 220" id="grid-y-7" />
    <path d="M 15,195 h 220" id="grid-y-half-7" />
  </g>
  <rect style="fill:#444444;stroke:#999999;stroke-width:1;paint-order:fill stroke;" id="tile-0-1" width="20" height="10" x="35" y="55" />
  <rect style="fill:#444444;stroke:#999999;stroke-width:1;paint-order:fill stroke;" id="tile-0-4" width="20" height="10" x="35" y="115" />
  <rect style="fill:#444444;stroke:#999999;stroke-width:1;paint-order:fill stroke;" id="tile-0-7" width="20" height="10" x="35" y="175" />
  <rect style="fill:#444444;stroke:#999999;stroke-width:1;paint-order:fill stroke;" id="tile-1-1" width="20" height="10" x="75" y="55" />
  <rect style="fill:#444444;stroke:#999999;stroke-width:1;paint-order:fill stroke;" id="tile-1-2" width="20" height="10" x="75" y="75" />
  <rect style="fill:#444444;stroke:#999999;stroke-width:1;paint-order:fill stroke;" id="tile-1-3" width="20" height="10" x="75" y="95" />
  <rect style="fill:#444444;stroke:#999999;stroke-width:1;paint-order:fill stroke;" id="tile-1-6" width="20" height="10" x="75" y="155" />
  <rect style="fill:#444444;stroke:#999999;stroke-width:1;paint-order:fill stroke;" id="tile-1-7" width="20" height="10" x="75" y="175" />
  <rect style="fill:#444444;stroke:#999999;stroke-width:1;paint-order:fill stroke;" id="tile-2-1" width="20" height="10" x="115" y="55" />
  <rect style="fill:#444444;stroke:#999999;stroke-width:1;paint-order:fill stroke;" id="tile-2-2" width="20" height="10" x="115" y="75" />
  <rect style="fill:#444444;stroke:#999999;stroke-width:1;paint-order:fill stroke;" id="tile-2-7" width="20" height="10" x="115" y="175" />
  <rect style="fill:#444444;stroke:#999999;stroke-width:1;paint-order:fill stroke;" id="tile-3-1" width="20" height="10" x="155" y="55" />
  <rect style="fill:#444444;stroke:#999999;stroke-width:1;paint-order:fill stroke;" id="tile-3-2" width="20" height="10" x="155" y="75" />
  <rect style="fill:#444444;stroke:#999999;stroke-width:1;paint-order:fill stroke;" id="tile-3-7" width="20" height="10" x="155" y="175" />
  <rect style="fill:#444444;stroke:#999999;stroke-width:1;paint-order:fill stroke;" id="tile-4-1" width="20" height="10" x="195" y="55" />
  <rect style="fill:#444444;stroke:#999999;stroke-width:1;paint-order:fill stroke;" id="tile-4-2" width="20" height="10" x="195" y="75" />
  <rect style="fill:#444444;stroke:#999999;stroke-width:1;paint-order:fill stroke;" id="tile-4-6" width="20" height="10" x="195" y="155" />
  <rect style="fill:#444444;stroke:#999999;stroke-width:1;paint-order:fill stroke;" id="tile-4-7" width="20" height="10" x="195" y="175" />
  <g aria-label="1" style="fill:#fea100;fill-opacity:1;stroke:none" id="text4528-0">
    <path d="m 25.76,49.599991 v -9.2 H 24.586667 L 22.24,41.346658 l 0.16,0.866666 2.253333,-0.706666 c -0.05333,0.266666 -0.06667,0.533333 -0.06667,0.8 v 7.293333 z" style="font-size:13.33333302px;fill:#fea100" id="path4714" />
  </g>
  <g aria-label="2" style="fill:#fea100;fill-opacity:1;stroke:none" id="text4528-0-5">
    <path d="m 22.139999,61.573326 c 1.146667,-0.186666 1.773334,-0.213333 2.64,-0.213333 1.053334,0 1.693333,0.106667 1.72,1 0.04,0.88 -0.506666,1.8 -1.68,3.066666 l -2.666666,3.013334 c -0.133334,0.146666 -0.173334,0.306666 -0.173334,0.506666 v 0.733334 h 6.04 v -1.133334 h -3.12 c -0.48,0 -1.026666,0.01333 -1.493333,0.05333 l 2.64,-2.946667 c 1.226666,-1.36 1.64,-2.186667 1.64,-3.346666 0,-1.666667 -1.066667,-1.986667 -2.826667,-1.986667 -0.826666,0 -1.546666,0.05333 -2.8,0.346667 z" style="font-size:13.33333302px;fill:#fea100" id="path4711" />
  </g>
  <g aria-label="3" style="fill:#fea100;fill-opacity:1;stroke:none" id="text4528-0-0">
    <path d="m 22.333002,81.373324 c 0.613333,-0.05333 1.466667,-0.106666 2.333333,-0.106666 1.413334,0 1.853334,0.2 1.88,1.36 0,0.853333 -0.146666,1.666666 -1.613333,1.68 h -1.706667 v 0.92 h 1.706667 c 1.52,0 1.826667,0.693333 1.826667,1.693333 0,1.346667 -0.573334,1.8 -2.053334,1.8 -0.853333,0 -1.64,-0.05333 -2.546666,-0.133333 l -0.08,0.946666 c 0.933333,0.133334 1.933333,0.24 2.92,0.24 2.173333,0 2.946666,-0.866666 2.92,-2.733333 -0.02667,-1.266667 -0.4,-2.106667 -1.6,-2.306667 v -0.05333 c 1.053333,-0.213333 1.346666,-1.133333 1.346666,-2.32 0,-1.626667 -0.826666,-2.133333 -2.84,-2.133333 -0.853333,0 -1.68,0.08 -2.586666,0.24 z" style="font-size:13.33333302px;fill:#fea100" id="path4708" />
  </g>
  <g aria-label="4" style="fill:#fea100;fill-opacity:1;stroke:none" id="text4528-0-2">
    <path d="m 28.543429,107.22667 v -0.84 H 27.356762 V 102.16 h -0.906666 l -0.2,1.52 v 2.70667 h -3.16 c -0.306667,0 -0.493334,-0.18667 -0.333334,-0.54667 l 2.573334,-5.44 h -1.16 l -2.613334,5.52 c -0.306666,0.68 0.12,1.42667 0.88,1.42667 h 3.813334 V 109.6 h 1.106666 v -2.25333 z" style="font-size:13.33333302px;fill:#fea100" id="path4705" />
  </g>
  <g aria-label="5" style="fill:#fea100;fill-opacity:1;stroke:none" id="text4528-0-4">
    <path d="m 27.533262,121.32 0.05333,-1 h -4.866667 l -0.213333,3.94667 c -0.01333,0.28 0.173333,0.49333 0.44,0.52 l 0.613333,0.04 c 2.333333,0.14667 3.173333,0.22667 3.146667,1.93333 -0.02667,1.21334 -0.346667,1.88 -2.093334,1.88 -0.613333,0 -1.506666,-0.0933 -2.333333,-0.24 l -0.133333,0.94667 c 0.986666,0.22667 2,0.33333 2.733333,0.33333 2.52,0 2.973333,-1.44 2.973333,-2.92 0.01333,-1.98666 -0.92,-2.68 -3.333333,-2.85333 l -0.986667,-0.08 0.133334,-2.50667 z" style="font-size:13.33333302px;fill:#fea100" id="path4702" />
  </g>
  <g aria-label="6" style="fill:#fea100;fill-opacity:1;stroke:none" id="text4528-0-45">
    <path d="m 27.419999,140.44001 c -0.746666,-0.2 -1.48,-0.2 -1.853333,-0.2 -2.426667,0 -3.573333,0.66666 -3.573333,4.98666 0,3.48 0.506666,4.53334 3.106666,4.53334 2.48,0 2.906667,-1.24 2.906667,-3.13334 0,-2.22666 -0.586667,-3.02666 -2.52,-3.02666 -1.026667,0 -1.666667,0.22666 -2.32,0.96 0.08,-2.85334 0.706667,-3.32 2.4,-3.32 0.8,0 1.16,0 1.746667,0.0533 z m -2.306666,8.32 c -1.786667,0 -1.96,-0.78667 -1.96,-3.36 0.76,-0.66667 1.28,-0.85334 2.026666,-0.85334 1.36,0 1.706667,0.57334 1.706667,2.08 0,1.37334 -0.2,2.13334 -1.773333,2.13334 z" style="font-size:13.33333302px;fill:#fea100" id="path4699" />
  </g>
  <g aria-label="7" style="fill:#fea100;fill-opacity:1;stroke:none" id="text4528-0-56">
    <path d="m 22.068203,160.40001 0.05333,1 h 4.586666 c -0.106666,0.21333 -0.2,0.44 -0.28,0.68 l -2.586666,7.52 h 1.173333 l 2.866667,-8.38667 c 0.16,-0.50667 -0.06667,-0.81333 -0.613334,-0.81333 z" style="font-size:13.33333302px;fill:#fea100" id="path4696" />
  </g>
  <g aria-label="8" style="fill:#fea100;fill-opacity:1;stroke:none" id="text4528">
    <path d="m 23.393333,184.85325 c -1.16,0.12 -1.52,1.01333 -1.52,2.45333 0,1.68 0.64,2.44 3.133333,2.42667 2.52,-0.0267 3.12,-0.74667 3.12,-2.42667 0,-1.44 -0.346667,-2.33333 -1.506667,-2.45333 v -0.0533 c 0.933334,-0.10666 1.306667,-0.90666 1.306667,-2.10666 0,-1.68 -0.573333,-2.42667 -2.92,-2.42667 -2.333333,0 -2.933333,0.74667 -2.933333,2.42667 0,1.2 0.386667,2 1.32,2.10666 z m 1.626666,-3.64 c 1.52,0 1.84,0.38666 1.84,1.58666 0,1.24 -0.28,1.56 -1.826666,1.56 -1.52,0 -1.88,-0.29333 -1.88,-1.56 0,-1.2 0.346667,-1.58666 1.866666,-1.58666 z m 0.01333,4.08 c 1.613333,0 1.973333,0.32 1.973333,1.77333 0,1.24 -0.36,1.65333 -1.986667,1.65333 -1.639999,0 -2.039999,-0.41333 -2.039999,-1.65333 0,-1.42667 0.386666,-1.76 2.053333,-1.77333 z" style="font-size:13.33333302px;fill:#fea100" id="path4717" />
  </g>
</svg>
