<?xml version="1.0" encoding="UTF-8" standalone="no"?>
<svg xmlns="http://www.w3.org/2000/svg" width="800" height="800" viewBox="0 0 200 200" version="1.1">
  <title>Tears of Joy Emoji Binary Representation</title>
  <rect style="fill:#ffffff;" id="background" width="200" height="200" x="0" y="0"/>
  <path d="M 31.392939,40.638068 H 18.998691 v -2.44562 h 5.072433 v -14.4021 l -4.725213,2.566409 -0.966178,-2.234289 6.280155,-3.306125 h 2.324864 v 17.376105 h 4.408187 z" style="fill:#000000;stroke:none;stroke-width:1" id="path4548" />
  <path d="M 53.059466,40.638068 H 40.66522 v -2.44562 h 5.072432 v -14.4021 l -4.72521,2.566409 -0.966178,-2.234289 6.280152,-3.306125 h 2.324867 v 17.376105 h 4.408183 z" style="fill:#000000;stroke:none;stroke-width:1" id="path4550" />
  <path d="M 74.725998,40.638068 H 62.331752 v -2.44562 h 5.072432 v -14.4021 l -4.725214,2.566409 -0.966177,-2.234289 6.280155,-3.306125 h 2.324864 v 17.376105 h 4.408186 z" style="fill:#000000;stroke:none;stroke-width:1" id="path4552" />
  <path d="M 96.392526,40.638068 H 83.998279 v -2.44562 h 5.072432 v -14.4021 l -4.725209,2.566409 -0.966177,-2.234289 6.280154,-3.306125 h 2.324865 v 17.376105 h 4.408182 z" style="fill:#000000;stroke:none;stroke-width:1" id="path4554" />
  <path d="m 118.67802,30.780067 q 0,2.264459 -0.4529,4.136423 -0.45292,1.856861 -1.3738,3.200479 -0.92088,1.328476 -2.29466,2.068231 -1.35868,0.724613 -3.20048,0.724613 -1.58512,0 -2.88343,-0.58876 -1.2983,-0.603863 -2.21917,-1.841758 -0.92088,-1.237933 -1.41907,-3.155208 -0.49822,-1.917236 -0.49822,-4.54402 0,-2.264497 0.45291,-4.136462 0.46801,-1.871964 1.37379,-3.200479 0.92088,-1.343579 2.29467,-2.068192 1.37378,-0.739755 3.20048,-0.739755 1.58511,0 2.88342,0.603863 1.2983,0.58876 2.21918,1.841797 0.92088,1.237895 1.4191,3.15517 0.49818,1.917235 0.49818,4.544058 z m -2.657,0.09047 q 0,-0.513282 -0.0453,-1.01146 -0.0315,-0.513282 -0.0755,-0.996357 l -8.34841,6.204653 q 0.22656,0.785027 0.5737,1.449265 0.34731,0.664276 0.8303,1.147351 0.49818,0.468011 1.11715,0.739717 0.63406,0.256837 1.43415,0.256837 1.02657,0 1.8569,-0.498179 0.84541,-0.498178 1.43417,-1.479431 0.58875,-0.981293 0.90577,-2.430557 0.31701,-1.464367 0.31701,-3.381643 z m -9.02773,-0.181321 q 0,0.467972 0,0.935983 0.0157,0.467971 0.0601,0.905775 l 8.3484,-6.174486 q -0.22654,-0.769922 -0.57365,-1.403953 -0.3473,-0.634071 -0.83033,-1.086978 -0.48308,-0.467972 -1.10205,-0.724613 -0.61897,-0.256837 -1.38889,-0.256837 -1.02656,0 -1.87196,0.498178 -0.8303,0.498179 -1.41906,1.494575 -0.58876,0.981253 -0.90582,2.445621 -0.31701,1.449264 -0.31701,3.366539 z" style="fill:#000000;stroke:none;stroke-width:1" id="path4556" />
  <path d="m 140.34453,30.780067 q 0,2.264459 -0.45286,4.136423 -0.45291,1.856861 -1.37379,3.200479 -0.92092,1.328476 -2.2947,2.068231 -1.35869,0.724613 -3.20044,0.724613 -1.58516,0 -2.88343,-0.58876 -1.29831,-0.603863 -2.21919,-1.841758 -0.92091,-1.237933 -1.4191,-3.155208 -0.49817,-1.917236 -0.49817,-4.54402 0,-2.264497 0.45291,-4.136462 0.46797,-1.871964 1.37378,-3.200479 0.92088,-1.343579 2.29467,-2.068192 1.37378,-0.739755 3.20043,-0.739755 1.58516,0 2.88347,0.603863 1.29827,0.58876 2.21919,1.841797 0.92088,1.237895 1.41905,3.15517 0.49818,1.917235 0.49818,4.544058 z m -2.65699,0.09047 q 0,-0.513282 -0.0453,-1.01146 -0.0315,-0.513282 -0.0755,-0.996357 l -8.34836,6.204653 q 0.22655,0.785027 0.57365,1.449265 0.34731,0.664276 0.83035,1.147351 0.49817,0.468011 1.11709,0.739717 0.63407,0.256837 1.43421,0.256837 1.02656,0 1.85686,-0.498179 0.8454,-0.498178 1.43416,-1.479431 0.58876,-0.981293 0.90581,-2.430557 0.31702,-1.464367 0.31702,-3.381643 z m -9.0277,-0.181321 q 0,0.467972 0,0.935983 0.0157,0.467971 0.0601,0.905775 l 8.34836,-6.174486 q -0.22655,-0.769922 -0.57366,-1.403953 -0.3473,-0.634071 -0.8303,-1.086978 -0.48311,-0.467972 -1.10204,-0.724613 -0.61896,-0.256837 -1.38889,-0.256837 -1.02656,0 -1.87197,0.498178 -0.83033,0.498179 -1.41909,1.494575 -0.58876,0.981253 -0.90577,2.445621 -0.31702,1.449264 -0.31702,3.366539 z" style="fill:#000000;stroke:none;stroke-width:1" id="path4558" />
  <path d="m 162.01108,30.780067 q 0,2.264459 -0.45291,4.136423 -0.4529,1.856861 -1.37378,3.200479 -0.92088,1.328476 -2.29467,2.068231 -1.35868,0.724613 -3.20047,0.724613 -1.58512,0 -2.88343,-0.58876 -1.29831,-0.603863 -2.21919,-1.841758 -0.92088,-1.237933 -1.41905,-3.155208 -0.49822,-1.917236 -0.49822,-4.54402 0,-2.264497 0.4529,-4.136462 0.46802,-1.871964 1.37379,-3.200479 0.92088,-1.343579 2.29466,-2.068192 1.37379,-0.739755 3.20049,-0.739755 1.58511,0 2.88342,0.603863 1.29831,0.58876 2.21919,1.841797 0.92088,1.237895 1.4191,3.15517 0.49817,1.917235 0.49817,4.544058 z m -2.65699,0.09047 q 0,-0.513282 -0.0453,-1.01146 -0.0315,-0.513282 -0.0755,-0.996357 l -8.3484,6.204653 q 0.22655,0.785027 0.5737,1.449265 0.34729,0.664276 0.8303,1.147351 0.49817,0.468011 1.11714,0.739717 0.63407,0.256837 1.43416,0.256837 1.02656,0 1.85686,-0.498179 0.84544,-0.498178 1.4342,-1.479431 0.58876,-0.981293 0.90578,-2.430557 0.31701,-1.464367 0.31701,-3.381643 z m -9.02774,-0.181321 q 0,0.467972 0,0.935983 0.0157,0.467971 0.0602,0.905775 l 8.3484,-6.174486 q -0.22656,-0.769922 -0.5737,-1.403953 -0.3473,-0.634071 -0.8303,-1.086978 -0.48307,-0.467972 -1.10204,-0.724613 -0.61896,-0.256837 -1.38889,-0.256837 -1.02656,0 -1.87196,0.498178 -0.8303,0.498179 -1.41906,1.494575 -0.58875,0.981253 -0.90581,2.445621 -0.31701,1.449264 -0.31701,3.366539 z" style="fill:#000000;stroke:none;stroke-width:1" id="path4560" />
  <path d="m 183.6776,30.780067 q 0,2.264459 -0.45291,4.136423 -0.45286,1.856861 -1.37379,3.200479 -0.92087,1.328476 -2.29467,2.068231 -1.35868,0.724613 -3.20044,0.724613 -1.58515,0 -2.88345,-0.58876 -1.29831,-0.603863 -2.21919,-1.841758 -0.92088,-1.237933 -1.41906,-3.155208 -0.49817,-1.917236 -0.49817,-4.54402 0,-2.264497 0.45286,-4.136462 0.46801,-1.871964 1.37379,-3.200479 0.92092,-1.343579 2.29466,-2.068192 1.37379,-0.739755 3.20048,-0.739755 1.58516,0 2.88343,0.603863 1.29831,0.58876 2.21918,1.841797 0.92092,1.237895 1.4191,3.15517 0.49818,1.917235 0.49818,4.544058 z m -2.65699,0.09047 q 0,-0.513282 -0.0453,-1.01146 -0.0315,-0.513282 -0.0755,-0.996357 l -8.34836,6.204653 q 0.22654,0.785027 0.57365,1.449265 0.3473,0.664276 0.83029,1.147351 0.49819,0.468011 1.11715,0.739717 0.63407,0.256837 1.43416,0.256837 1.02656,0 1.8569,-0.498179 0.8454,-0.498178 1.43417,-1.479431 0.58875,-0.981293 0.90577,-2.430557 0.31701,-1.464367 0.31701,-3.381643 z m -9.0277,-0.181321 q 0,0.467972 0,0.935983 0.0157,0.467971 0.0601,0.905775 l 8.34837,-6.174486 q -0.22656,-0.769922 -0.57366,-1.403953 -0.34731,-0.634071 -0.83034,-1.086978 -0.48308,-0.467972 -1.10204,-0.724613 -0.61893,-0.256837 -1.38885,-0.256837 -1.02657,0 -1.87201,0.498178 -0.8303,0.498179 -1.41905,1.494575 -0.58876,0.981253 -0.90578,2.445621 -0.31702,1.449264 -0.31702,3.366539 z" style="fill:#000000;stroke:none;stroke-width:1" id="path4562" />
  <path d="M 31.392939,87.014598 H 18.998691 v -2.44562 h 5.072433 v -14.4021 l -4.725213,2.56641 -0.966178,-2.23429 6.280155,-3.306125 h 2.324864 v 17.376105 h 4.408187 z" style="fill:#000000;stroke:none;stroke-width:1" id="path4564" />
  <path d="m 53.678425,77.156558 q 0,2.264498 -0.452896,4.136462 -0.452895,1.856861 -1.373786,3.20044 -0.920886,1.328515 -2.294668,2.068231 -1.358686,0.724652 -3.200464,0.724652 -1.585136,0 -2.883437,-0.58876 -1.2983,-0.603863 -2.219191,-1.841797 -0.920886,-1.237894 -1.419073,-3.155169 -0.498182,-1.917276 -0.498182,-4.544059 0,-2.264458 0.452896,-4.136423 0.467991,-1.872003 1.373782,-3.200479 0.920887,-1.343579 2.294673,-2.068231 1.373782,-0.739716 3.200464,-0.739716 1.585131,0 2.883432,0.603864 1.298304,0.588759 2.219191,1.841757 0.920886,1.237934 1.419073,3.15517 0.498186,1.917274 0.498186,4.544058 z m -2.65699,0.09047 q 0,-0.513283 -0.04527,-1.01146 -0.03029,-0.513282 -0.07548,-0.996357 l -8.348385,6.20465 q 0.226434,0.785027 0.573668,1.449264 0.347222,0.664238 0.830309,1.147352 0.498183,0.467972 1.117141,0.739716 0.634056,0.256444 1.43417,0.256444 1.026563,0 1.856872,-0.498178 0.845405,-0.498178 1.434169,-1.479471 0.588767,-0.981253 0.90579,-2.430517 0.317016,-1.464368 0.317016,-3.381643 z m -9.02772,-0.181324 q 0,0.468011 0,0.935982 0.01494,0.468011 0.06037,0.905816 l 8.348378,-6.174487 q -0.226434,-0.769922 -0.573669,-1.403993 -0.347223,-0.63403 -0.830309,-1.086938 -0.483091,-0.467972 -1.102045,-0.724612 -0.618959,-0.256838 -1.388882,-0.256838 -1.026564,0 -1.871969,0.498178 -0.830309,0.498179 -1.419073,1.494535 -0.588764,0.981293 -0.90579,2.445661 -0.317016,1.449264 -0.317016,3.3665 z" style="fill:#000000;stroke:none;stroke-width:1" id="path4566" />
  <path d="m 75.344953,77.156558 q 0,2.264498 -0.452895,4.136462 -0.452896,1.856861 -1.373783,3.20044 -0.920887,1.328515 -2.294673,2.068231 -1.358686,0.724652 -3.200464,0.724652 -1.585131,0 -2.883432,-0.58876 -1.298304,-0.603863 -2.21919,-1.841797 -0.920887,-1.237894 -1.419074,-3.155169 -0.498186,-1.917276 -0.498186,-4.544059 0,-2.264458 0.452896,-4.136423 0.467995,-1.872003 1.373786,-3.200479 0.920886,-1.343579 2.294668,-2.068231 1.373787,-0.739716 3.200464,-0.739716 1.585136,0 2.883437,0.603864 1.2983,0.588759 2.219187,1.841757 0.92089,1.237934 1.419077,3.15517 0.498182,1.917274 0.498182,4.544058 z m -2.656987,0.09047 q 0,-0.513283 -0.04532,-1.01146 -0.03029,-0.513282 -0.07548,-0.996357 l -8.348378,6.204653 q 0.226434,0.785027 0.573667,1.449264 0.347223,0.664238 0.83031,1.147352 0.498186,0.467972 1.117141,0.739716 0.634055,0.256444 1.434172,0.256444 1.026565,0 1.856873,-0.498178 0.845405,-0.498178 1.434168,-1.479471 0.588764,-0.981253 0.905792,-2.430517 0.317015,-1.464368 0.317015,-3.381643 z m -9.02772,-0.181321 q 0,0.468011 0,0.935982 0.01494,0.468011 0.06037,0.905816 l 8.348374,-6.174487 q -0.226434,-0.769922 -0.573668,-1.403993 -0.347222,-0.63403 -0.830305,-1.086938 -0.483091,-0.467972 -1.10205,-0.724612 -0.618954,-0.256838 -1.388878,-0.256838 -1.026563,0 -1.871968,0.498178 -0.830309,0.498179 -1.419073,1.494535 -0.588767,0.981293 -0.905795,2.445661 -0.317015,1.449264 -0.317015,3.3665 z" style="fill:#000000;stroke:none;stroke-width:1" id="path4568" />
  <path d="M 96.392526,87.014598 H 83.998279 v -2.44562 h 5.072432 v -14.4021 l -4.725209,2.56641 -0.966177,-2.23429 6.280154,-3.306125 h 2.324865 v 17.376105 h 4.408182 z" style="fill:#000000;stroke:none;stroke-width:1" id="path4570" />
  <path d="m 118.05905,87.014598 h -12.39424 v -2.44562 h 5.07245 v -14.4021 l -4.72523,2.56641 -0.96618,-2.23429 6.28017,-3.306125 h 2.32486 v 17.376105 h 4.40817 z" style="fill:#000000;stroke:none;stroke-width:1" id="path4572" />
  <path d="m 139.72557,87.014598 h -12.39425 v -2.44562 h 5.07245 v -14.4021 l -4.72522,2.56641 -0.96616,-2.23429 6.28014,-3.306125 h 2.32487 v 17.376105 h 4.40817 z" style="fill:#000000;stroke:none;stroke-width:1" id="path4574" />
  <path d="m 161.39212,87.014598 h -12.39424 v -2.44562 h 5.07244 v -14.4021 l -4.72522,2.56641 -0.9662,-2.23429 6.28018,-3.306125 h 2.32483 v 17.376105 h 4.40821 z" style="fill:#000000;stroke:none;stroke-width:1" id="path4576" />
  <path d="m 183.05863,87.014598 h -12.39424 v -2.44562 h 5.07244 v -14.4021 l -4.72522,2.56641 -0.96619,-2.23429 6.28018,-3.306125 h 2.32486 v 17.376105 h 4.40817 z" style="fill:#000000;stroke:none;stroke-width:1" id="path4578" />
  <path d="M 31.392939,133.39112 H 18.998691 v -2.44565 h 5.072433 V 116.5434 l -4.725213,2.56642 -0.966178,-2.23429 6.280155,-3.30616 h 2.324864 v 17.3761 h 4.408187 z" style="fill:#000000;stroke:none;stroke-width:1" id="path4580" />
  <path d="m 53.678425,123.53309 q 0,2.26446 -0.452896,4.13643 -0.452895,1.85689 -1.373786,3.20047 -0.920886,1.32851 -2.294668,2.06823 -1.358686,0.72461 -3.200464,0.72461 -1.585136,0 -2.883437,-0.58875 -1.2983,-0.60387 -2.219191,-1.84176 -0.920886,-1.23794 -1.419073,-3.15517 -0.498182,-1.91728 -0.498182,-4.54406 0,-2.2645 0.452896,-4.13647 0.467991,-1.87196 1.373782,-3.20044 0.920887,-1.34361 2.294673,-2.06822 1.373782,-0.73976 3.200464,-0.73976 1.585131,0 2.883432,0.60386 1.298304,0.58877 2.219191,1.8418 0.920886,1.2379 1.419073,3.15517 0.498186,1.91727 0.498186,4.54406 z m -2.65699,0.0904 q 0,-0.51328 -0.04527,-1.01146 -0.03029,-0.51328 -0.07548,-0.99639 l -8.348378,6.20468 q 0.226434,0.78503 0.573668,1.44927 0.347222,0.66423 0.830309,1.14731 0.498183,0.46801 1.117141,0.73976 0.634056,0.25684 1.43417,0.25684 1.026563,0 1.856872,-0.49819 0.845405,-0.49821 1.434169,-1.47947 0.588767,-0.98129 0.90579,-2.43055 0.317016,-1.46437 0.317016,-3.3816 z m -9.02772,-0.18127 q 0,0.46796 0,0.93597 0.01494,0.46797 0.06037,0.90578 l 8.348378,-6.17444 q -0.226434,-0.76993 -0.573669,-1.404 -0.347223,-0.63407 -0.830309,-1.08694 -0.483091,-0.46801 -1.102045,-0.72465 -0.618959,-0.25644 -1.388882,-0.25644 -1.026564,0 -1.871969,0.49818 -0.830309,0.49817 -1.419073,1.49456 -0.588764,0.98126 -0.90579,2.44563 -0.317016,1.44926 -0.317016,3.36654 z" style="fill:#000000;stroke:none;stroke-width:1" id="path4582" />
  <path d="m 75.344953,123.53309 q 0,2.26446 -0.452895,4.13643 -0.452896,1.85689 -1.373783,3.20047 -0.920887,1.32851 -2.294673,2.06823 -1.358686,0.72461 -3.200464,0.72461 -1.585131,0 -2.883432,-0.58875 -1.298304,-0.60387 -2.21919,-1.84176 -0.920887,-1.23794 -1.419074,-3.15517 -0.498186,-1.91728 -0.498186,-4.54406 0,-2.2645 0.452896,-4.13647 0.467995,-1.87196 1.373786,-3.20044 0.920886,-1.34361 2.294668,-2.06822 1.373787,-0.73976 3.200464,-0.73976 1.585136,0 2.883437,0.60386 1.2983,0.58877 2.219187,1.8418 0.92089,1.2379 1.419077,3.15517 0.498182,1.91727 0.498182,4.54406 z m -2.656987,0.0904 q 0,-0.51328 -0.04532,-1.01146 -0.03029,-0.51328 -0.07548,-0.99639 l -8.348378,6.20468 q 0.226434,0.78503 0.573667,1.44927 0.347223,0.66423 0.83031,1.14731 0.498186,0.46801 1.117141,0.73976 0.634055,0.25684 1.434172,0.25684 1.026565,0 1.856873,-0.49819 0.845405,-0.49821 1.434168,-1.47947 0.588764,-0.98129 0.905792,-2.43055 0.317015,-1.46437 0.317015,-3.3816 z m -9.02772,-0.18132 q 0,0.46797 0,0.93598 0.01494,0.46797 0.06037,0.90577 l 8.348374,-6.17443 q -0.226434,-0.76993 -0.573668,-1.404 -0.347222,-0.63407 -0.830305,-1.08694 -0.483091,-0.46801 -1.10205,-0.72466 -0.618954,-0.25643 -1.388878,-0.25643 -1.026563,0 -1.871968,0.49817 -0.830309,0.49818 -1.419073,1.49457 -0.588767,0.98126 -0.905795,2.44563 -0.317015,1.44926 -0.317015,3.36654 z" style="fill:#000000;stroke:none;stroke-width:1" id="path4584" />
  <path d="M 96.392526,133.39112 H 83.998279 v -2.44565 h 5.072432 V 116.5434 l -4.725209,2.56642 -0.966177,-2.23429 6.280154,-3.30616 h 2.324865 v 17.3761 h 4.408182 z" style="fill:#000000;stroke:none;stroke-width:1" id="path4586" />
  <path d="m 118.05905,133.39112 h -12.39424 v -2.44565 h 5.07245 V 116.5434 l -4.72523,2.56642 -0.96618,-2.23429 6.28017,-3.30616 h 2.32486 v 17.3761 h 4.40817 z" style="fill:#000000;stroke:none;stroke-width:1" id="path4588" />
  <path d="m 140.34453,123.53309 q 0,2.26446 -0.45286,4.13643 -0.45291,1.85689 -1.37379,3.20047 -0.92092,1.32851 -2.2947,2.06823 -1.35869,0.72461 -3.20044,0.72461 -1.58516,0 -2.88343,-0.58875 -1.29831,-0.60387 -2.21919,-1.84176 -0.92091,-1.23794 -1.4191,-3.15517 -0.49817,-1.91728 -0.49817,-4.54406 0,-2.2645 0.45291,-4.13647 0.46797,-1.87196 1.37378,-3.20044 0.92088,-1.34361 2.29467,-2.06822 1.37378,-0.73976 3.20043,-0.73976 1.58516,0 2.88347,0.60386 1.29827,0.58877 2.21919,1.8418 0.92088,1.2379 1.41905,3.15517 0.49818,1.91727 0.49818,4.54406 z m -2.65699,0.0904 q 0,-0.51328 -0.0453,-1.01146 -0.0315,-0.51328 -0.0755,-0.99639 l -8.34836,6.20468 q 0.22655,0.78503 0.57365,1.44927 0.34731,0.66423 0.83035,1.14731 0.49817,0.46801 1.11709,0.73976 0.63407,0.25684 1.43421,0.25684 1.02656,0 1.85686,-0.49819 0.8454,-0.49821 1.43416,-1.47947 0.58876,-0.98129 0.90581,-2.43055 0.31702,-1.46437 0.31702,-3.3816 z m -9.0277,-0.18132 q 0,0.46797 0,0.93598 0.0157,0.46797 0.0601,0.90577 l 8.34836,-6.17443 q -0.22655,-0.76993 -0.57366,-1.404 -0.3473,-0.63407 -0.8303,-1.08694 -0.48311,-0.46801 -1.10204,-0.72466 -0.61896,-0.25643 -1.38889,-0.25643 -1.02656,0 -1.87197,0.49817 -0.83033,0.49818 -1.41909,1.49457 -0.58876,0.98126 -0.90577,2.44563 -0.31702,1.44926 -0.31702,3.36654 z" style="fill:#000000;stroke:none;stroke-width:1" id="path4590" />
  <path d="m 162.01108,123.53309 q 0,2.26446 -0.45291,4.13643 -0.4529,1.85689 -1.37378,3.20047 -0.92088,1.32851 -2.29467,2.06823 -1.35868,0.72461 -3.20047,0.72461 -1.58512,0 -2.88343,-0.58875 -1.29831,-0.60387 -2.21919,-1.84176 -0.92088,-1.23794 -1.41905,-3.15517 -0.49822,-1.91728 -0.49822,-4.54406 0,-2.2645 0.4529,-4.13647 0.46802,-1.87196 1.37379,-3.20044 0.92088,-1.34361 2.29466,-2.06822 1.37379,-0.73976 3.20049,-0.73976 1.58511,0 2.88342,0.60386 1.29831,0.58877 2.21919,1.8418 0.92088,1.2379 1.4191,3.15517 0.49817,1.91727 0.49817,4.54406 z m -2.65699,0.0904 q 0,-0.51328 -0.0453,-1.01146 -0.0315,-0.51328 -0.0755,-0.99639 l -8.3484,6.20468 q 0.22655,0.78503 0.5737,1.44927 0.34729,0.66423 0.8303,1.14731 0.49817,0.46801 1.11714,0.73976 0.63407,0.25684 1.43416,0.25684 1.02656,0 1.85686,-0.49819 0.84544,-0.49821 1.4342,-1.47947 0.58876,-0.98129 0.90578,-2.43055 0.31701,-1.46437 0.31701,-3.3816 z m -9.02774,-0.18132 q 0,0.46797 0,0.93598 0.0157,0.46797 0.0602,0.90577 l 8.3484,-6.17443 q -0.22656,-0.76993 -0.5737,-1.404 -0.3473,-0.63407 -0.8303,-1.08694 -0.48307,-0.46801 -1.10204,-0.72466 -0.61896,-0.25643 -1.38889,-0.25643 -1.02656,0 -1.87196,0.49817 -0.8303,0.49818 -1.41906,1.49457 -0.58875,0.98126 -0.90581,2.44563 -0.31701,1.44926 -0.31701,3.36654 z" style="fill:#000000;stroke:none;stroke-width:1" id="path4592" />
  <path d="m 183.6776,123.53309 q 0,2.26446 -0.45291,4.13643 -0.45286,1.85689 -1.37379,3.20047 -0.92087,1.32851 -2.29467,2.06823 -1.35868,0.72461 -3.20044,0.72461 -1.58515,0 -2.88345,-0.58875 -1.29831,-0.60387 -2.21919,-1.84176 -0.92088,-1.23794 -1.41906,-3.15517 -0.49817,-1.91728 -0.49817,-4.54406 0,-2.2645 0.45286,-4.13647 0.46801,-1.87196 1.37379,-3.20044 0.92092,-1.34361 2.29466,-2.06822 1.37379,-0.73976 3.20048,-0.73976 1.58516,0 2.88343,0.60386 1.29831,0.58877 2.21918,1.8418 0.92092,1.2379 1.4191,3.15517 0.49818,1.91727 0.49818,4.54406 z m -2.65699,0.0904 q 0,-0.51328 -0.0453,-1.01146 -0.0315,-0.51328 -0.0755,-0.99639 l -8.34836,6.20468 q 0.22654,0.78503 0.57365,1.44927 0.3473,0.66423 0.83029,1.14731 0.49819,0.46801 1.11715,0.73976 0.63407,0.25684 1.43416,0.25684 1.02656,0 1.8569,-0.49819 0.8454,-0.49821 1.43417,-1.47947 0.58875,-0.98129 0.90577,-2.43055 0.31701,-1.46437 0.31701,-3.3816 z m -9.0277,-0.18132 q 0,0.46797 0,0.93598 0.0157,0.46797 0.0601,0.90577 l 8.34837,-6.17443 q -0.22656,-0.76993 -0.57366,-1.404 -0.34731,-0.63407 -0.83034,-1.08694 -0.48308,-0.46801 -1.10204,-0.72466 -0.61893,-0.25643 -1.38885,-0.25643 -1.02657,0 -1.87201,0.49817 -0.8303,0.49818 -1.41905,1.49457 -0.58876,0.98126 -0.90578,2.44563 -0.31702,1.44926 -0.31702,3.36654 z" style="fill:#000000;stroke:none;stroke-width:1" id="path4594" />
  <path d="M 31.392939,179.76762 H 18.998691 V 177.322 h 5.072433 v -14.40211 l -4.725213,2.56642 -0.966178,-2.23429 6.280155,-3.30613 h 2.324864 V 177.322 h 4.408187 z" style="fill:#000000;stroke:none;stroke-width:1" id="path4596" />
  <path d="m 53.678425,169.90957 q 0,2.26451 -0.452896,4.13647 -0.452895,1.85686 -1.373786,3.20048 -0.920886,1.32847 -2.294668,2.06819 -1.358686,0.72465 -3.200464,0.72465 -1.585136,0 -2.883437,-0.58876 -1.2983,-0.60386 -2.219191,-1.84179 -0.920886,-1.2379 -1.419073,-3.15517 -0.498182,-1.91724 -0.498182,-4.54407 0,-2.26445 0.452896,-4.13641 0.467991,-1.87197 1.373782,-3.20049 0.920887,-1.34357 2.294673,-2.06822 1.373782,-0.73972 3.200464,-0.73972 1.585131,0 2.883432,0.60386 1.298304,0.58877 2.219191,1.84176 0.920886,1.23794 1.419073,3.15521 0.498186,1.91723 0.498186,4.54401 z M 51.021435,170 q 0,-0.51328 -0.04527,-1.01146 -0.03029,-0.51328 -0.07548,-0.99635 l -8.348378,6.20464 q 0.226434,0.78503 0.573668,1.44927 0.347222,0.66428 0.830309,1.14735 0.498183,0.46797 1.117141,0.73972 0.634056,0.25645 1.43417,0.25645 1.026563,0 1.856872,-0.49819 0.845405,-0.49817 1.434169,-1.47947 0.588767,-0.98125 0.90579,-2.43051 0.317016,-1.46437 0.317016,-3.38165 z m -9.02772,-0.18132 q 0,0.46797 0,0.93598 0.01494,0.46797 0.06037,0.90577 l 8.348378,-6.17448 q -0.226434,-0.76992 -0.573669,-1.40395 -0.347223,-0.63407 -0.830309,-1.08697 -0.483091,-0.46798 -1.102045,-0.72463 -0.618959,-0.25682 -1.388882,-0.25682 -1.026564,0 -1.871969,0.49817 -0.830309,0.49818 -1.419073,1.49454 -0.588764,0.98129 -0.90579,2.44565 -0.317016,1.44927 -0.317016,3.36655 z" style="fill:#000000;stroke:none;stroke-width:1" id="path4598" />
  <path d="m 75.344953,169.90957 q 0,2.26451 -0.452895,4.13647 -0.452896,1.85686 -1.373783,3.20048 -0.920887,1.32847 -2.294673,2.06819 -1.358686,0.72465 -3.200464,0.72465 -1.585131,0 -2.883432,-0.58876 -1.298304,-0.60386 -2.21919,-1.84179 -0.920887,-1.2379 -1.419074,-3.15517 -0.498186,-1.91724 -0.498186,-4.54407 0,-2.26445 0.452896,-4.13641 0.467995,-1.87197 1.373786,-3.20049 0.920886,-1.34357 2.294668,-2.06822 1.373787,-0.73972 3.200464,-0.73972 1.585136,0 2.883437,0.60386 1.2983,0.58877 2.219187,1.84176 0.92089,1.23794 1.419077,3.15521 0.498182,1.91723 0.498182,4.54401 z M 72.687966,170 q 0,-0.51328 -0.04532,-1.01146 -0.03029,-0.51328 -0.07548,-0.99635 l -8.348378,6.20464 q 0.226434,0.78503 0.573667,1.44927 0.347223,0.66428 0.83031,1.14735 0.498186,0.46797 1.117141,0.73972 0.634055,0.25645 1.434172,0.25645 1.026565,0 1.856873,-0.49819 0.845405,-0.49817 1.434168,-1.47947 0.588764,-0.98125 0.905792,-2.43051 0.317015,-1.46437 0.317015,-3.38165 z m -9.02772,-0.18132 q 0,0.46797 0,0.93598 0.01494,0.46797 0.06037,0.90577 l 8.348374,-6.17448 q -0.226434,-0.76992 -0.573668,-1.40395 -0.347222,-0.63407 -0.830305,-1.08697 -0.483091,-0.46798 -1.10205,-0.72463 -0.618954,-0.25682 -1.388878,-0.25682 -1.026563,0 -1.871968,0.49817 -0.830309,0.49818 -1.419073,1.49454 -0.588767,0.98129 -0.905795,2.44565 -0.317015,1.44927 -0.317015,3.36655 z" style="fill:#000000;stroke:none;stroke-width:1" id="path4600" />
  <path d="m 97.011484,169.90957 q 0,2.26451 -0.452894,4.13647 -0.452896,1.85686 -1.373787,3.20048 -0.920886,1.32847 -2.294669,2.06819 -1.358686,0.72465 -3.200463,0.72465 -1.585137,0 -2.883437,-0.58876 -1.298301,-0.60386 -2.219187,-1.84179 -0.920891,-1.2379 -1.419072,-3.15517 -0.498187,-1.91724 -0.498187,-4.54407 0,-2.26445 0.452896,-4.13641 0.467991,-1.87197 1.373781,-3.20049 0.920891,-1.34357 2.294673,-2.06822 1.373783,-0.73972 3.200464,-0.73972 1.585133,0 2.883437,0.60386 1.2983,0.58877 2.219187,1.84176 0.920887,1.23794 1.419072,3.15521 0.498186,1.91723 0.498186,4.54401 z M 94.354498,170 q 0,-0.51328 -0.04531,-1.01146 -0.03029,-0.51328 -0.07548,-0.99635 l -8.348378,6.20464 q 0.226434,0.78503 0.573668,1.44927 0.347222,0.66428 0.830309,1.14735 0.498182,0.46797 1.117141,0.73972 0.634055,0.25645 1.434169,0.25645 1.026563,0 1.856872,-0.49819 0.845405,-0.49817 1.434172,-1.47947 0.588765,-0.98125 0.905792,-2.43051 0.317015,-1.46437 0.317015,-3.38165 z m -9.027723,-0.18132 q 0,0.46797 0,0.93598 0.01494,0.46797 0.06037,0.90577 l 8.348378,-6.17448 q -0.226434,-0.76992 -0.573668,-1.40395 -0.347222,-0.63407 -0.83031,-1.08697 -0.483086,-0.46798 -1.102045,-0.72463 -0.618959,-0.25682 -1.388882,-0.25682 -1.026563,0 -1.871967,0.49817 -0.83031,0.49818 -1.419073,1.49454 -0.588764,0.98129 -0.905792,2.44565 -0.317015,1.44927 -0.317015,3.36655 z" style="fill:#000000;stroke:none;stroke-width:1" id="path4602" />
  <path d="m 118.67802,169.90957 q 0,2.26451 -0.4529,4.13647 -0.45292,1.85686 -1.3738,3.20048 -0.92088,1.32847 -2.29466,2.06819 -1.35868,0.72465 -3.20048,0.72465 -1.58512,0 -2.88343,-0.58876 -1.2983,-0.60386 -2.21917,-1.84179 -0.92088,-1.2379 -1.41907,-3.15517 -0.49822,-1.91724 -0.49822,-4.54407 0,-2.26445 0.45291,-4.13641 0.46801,-1.87197 1.37379,-3.20049 0.92088,-1.34357 2.29467,-2.06822 1.37378,-0.73972 3.20048,-0.73972 1.58511,0 2.88342,0.60386 1.2983,0.58877 2.21918,1.84176 0.92088,1.23794 1.4191,3.15521 0.49818,1.91723 0.49818,4.54401 z m -2.657,0.0904 q 0,-0.51328 -0.0453,-1.01146 -0.0315,-0.51328 -0.0755,-0.99635 l -8.34841,6.20464 q 0.22656,0.78503 0.5737,1.44927 0.34731,0.66428 0.8303,1.14735 0.49818,0.46797 1.11715,0.73972 0.63406,0.25645 1.43415,0.25645 1.02657,0 1.8569,-0.49819 0.84541,-0.49817 1.43417,-1.47947 0.58875,-0.98125 0.90577,-2.43051 0.31701,-1.46437 0.31701,-3.38165 z m -9.02773,-0.18132 q 0,0.46797 0,0.93598 0.0157,0.46797 0.0601,0.90577 l 8.3484,-6.17448 q -0.22654,-0.76992 -0.57365,-1.40395 -0.3473,-0.63407 -0.83033,-1.08697 -0.48308,-0.46798 -1.10205,-0.72463 -0.61897,-0.25682 -1.38889,-0.25682 -1.02656,0 -1.87196,0.49817 -0.8303,0.49818 -1.41906,1.49454 -0.58876,0.98129 -0.90582,2.44565 -0.31701,1.44927 -0.31701,3.36655 z" style="fill:#000000;stroke:none;stroke-width:1" id="path4604" />
  <path d="m 140.34453,169.90957 q 0,2.26451 -0.45286,4.13647 -0.45291,1.85686 -1.37379,3.20048 -0.92092,1.32847 -2.2947,2.06819 -1.35869,0.72465 -3.20044,0.72465 -1.58516,0 -2.88343,-0.58876 -1.29831,-0.60386 -2.21919,-1.84179 -0.92091,-1.2379 -1.4191,-3.15517 -0.49817,-1.91724 -0.49817,-4.54407 0,-2.26445 0.45291,-4.13641 0.46797,-1.87197 1.37378,-3.20049 0.92088,-1.34357 2.29467,-2.06822 1.37378,-0.73972 3.20043,-0.73972 1.58516,0 2.88347,0.60386 1.29827,0.58877 2.21919,1.84176 0.92088,1.23794 1.41905,3.15521 0.49818,1.91723 0.49818,4.54401 z M 137.68754,170 q 0,-0.51328 -0.0453,-1.01146 -0.0315,-0.51328 -0.0755,-0.99635 l -8.34836,6.20464 q 0.22655,0.78503 0.57365,1.44927 0.34731,0.66428 0.83035,1.14735 0.49817,0.46797 1.11709,0.73972 0.63407,0.25645 1.43421,0.25645 1.02656,0 1.85686,-0.49819 0.8454,-0.49817 1.43416,-1.47947 0.58876,-0.98125 0.90581,-2.43051 0.31702,-1.46437 0.31702,-3.38165 z m -9.0277,-0.18132 q 0,0.46797 0,0.93598 0.0157,0.46797 0.0601,0.90577 l 8.34836,-6.17448 q -0.22655,-0.76992 -0.57366,-1.40395 -0.3473,-0.63407 -0.8303,-1.08697 -0.48311,-0.46798 -1.10204,-0.72463 -0.61896,-0.25682 -1.38889,-0.25682 -1.02656,0 -1.87197,0.49817 -0.83033,0.49818 -1.41909,1.49454 -0.58876,0.98129 -0.90577,2.44565 -0.31702,1.44927 -0.31702,3.36655 z" style="fill:#000000;stroke:none;stroke-width:1" id="path4606" />
  <path d="M 161.39212,179.76762 H 148.99788 V 177.322 h 5.07244 v -14.40211 l -4.72522,2.56642 -0.9662,-2.23429 6.28018,-3.30613 h 2.32483 V 177.322 h 4.40821 z" style="fill:#000000;stroke:none;stroke-width:1" id="path4608" />
  <path d="m 183.6776,169.90957 q 0,2.26451 -0.45291,4.13647 -0.45286,1.85686 -1.37379,3.20048 -0.92087,1.32847 -2.29467,2.06819 -1.35868,0.72465 -3.20044,0.72465 -1.58515,0 -2.88345,-0.58876 -1.29831,-0.60386 -2.21919,-1.84179 -0.92088,-1.2379 -1.41906,-3.15517 -0.49817,-1.91724 -0.49817,-4.54407 0,-2.26445 0.45286,-4.13641 0.46801,-1.87197 1.37379,-3.20049 0.92092,-1.34357 2.29466,-2.06822 1.37379,-0.73972 3.20048,-0.73972 1.58516,0 2.88343,0.60386 1.29831,0.58877 2.21918,1.84176 0.92092,1.23794 1.4191,3.15521 0.49818,1.91723 0.49818,4.54401 z M 181.02061,170 q 0,-0.51328 -0.0453,-1.01146 -0.0315,-0.51328 -0.0755,-0.99635 l -8.34836,6.20464 q 0.22654,0.78503 0.57365,1.44927 0.3473,0.66428 0.83029,1.14735 0.49819,0.46797 1.11715,0.73972 0.63407,0.25645 1.43416,0.25645 1.02656,0 1.8569,-0.49819 0.8454,-0.49817 1.43417,-1.47947 0.58875,-0.98125 0.90577,-2.43051 0.31701,-1.46437 0.31701,-3.38165 z m -9.0277,-0.18132 q 0,0.46797 0,0.93598 0.0157,0.46797 0.0601,0.90577 l 8.34837,-6.17448 q -0.22656,-0.76992 -0.57366,-1.40395 -0.34731,-0.63407 -0.83034,-1.08697 -0.48308,-0.46798 -1.10204,-0.72463 -0.61893,-0.25682 -1.38885,-0.25682 -1.02657,0 -1.87201,0.49817 -0.8303,0.49818 -1.41905,1.49454 -0.58876,0.98129 -0.90578,2.44565 -0.31702,1.44927 -0.31702,3.36655 z" style="fill:#000000;stroke:none;stroke-width:1" id="path4610" />
  <path id="path4501" d="m 13.559112,85.159507 v 6.492721 h 43.593929 v -6.492721" style="fill:none;stroke:#ff3368;stroke-width:2.5" />
  <path id="path4501-6" d="m 13.559112,131.53603 v 6.49273 h 43.593929 v -6.49273" style="fill:none;stroke:#ff3368;stroke-width:2.5" />
  <path id="path4501-3" d="m 13.559112,177.91256 v 6.49273 h 43.593929 v -6.49273" style="fill:none;stroke:#ff3368;stroke-width:2.5" />
  <path id="path4526" d="M 13.559112,23.014998 V 15.594712 H 122.08015 v 7.420286" style="fill:none;stroke:#fea100;stroke-width:2.5" />
</svg>
