<?xml version="1.0" encoding="UTF-8" standalone="no"?>
<svg xmlns="http://www.w3.org/2000/svg" width="840" height="920" viewBox="0 0 210 230" version="1.1">
    <rect style="fill:#888888;stroke:#999999;stroke-width:1;paint-order:fill stroke;" id="floor" width="180" height="200" x="15" y="15" />
    <g id="floortile-grid" style="stroke:#999999;stroke-width=1;">
        <path d="M 35,15 v 200" id="grid-x-0"/>
        <path d="M 55,15 v 200" id="grid-x-half-0"/>
        <path d="M 75,15 v 200" id="grid-x-1"/>
        <path d="M 95,15 v 200" id="grid-x-half-1"/>
        <path d="M 115,15 v 200" id="grid-x-2"/>
        <path d="M 135,15 v 200" id="grid-x-half-2"/>
        <path d="M 155,15 v 200" id="grid-x-3"/>
        <path d="M 175,15 v 200" id="grid-x-half-3"/>
        <path d="M 15,35 h 180" id="grid-y-0"/>
        <path d="M 15,55 h 180" id="grid-y-1"/>
        <path d="M 15,75 h 180" id="grid-y-2"/>
        <path d="M 15,95 h 180" id="grid-y-3"/>
        <path d="M 15,115 h 180" id="grid-y-4"/>
        <path d="M 15,135 h 180" id="grid-y-5"/>
        <path d="M 15,155 h 180" id="grid-y-6"/>
        <path d="M 15,175 h 180" id="grid-y-7"/>
        <path d="M 15,195 h 180" id="grid-y-half-7"/>
    </g>
    <rect style="fill:#444444;stroke:#999999;stroke-width:1;paint-order:fill stroke;" id="tile-0-0" width="20" height="10" x="35" y="35" />
    <rect style="fill:#444444;stroke:#999999;stroke-width:1;paint-order:fill stroke;" id="tile-0-1" width="20" height="10" x="35" y="55" />
    <rect style="fill:#444444;stroke:#999999;stroke-width:1;paint-order:fill stroke;" id="tile-0-2" width="20" height="10" x="35" y="75" />
    <rect style="fill:#444444;stroke:#999999;stroke-width:1;paint-order:fill stroke;" id="tile-0-3" width="20" height="10" x="35" y="95" />
    <rect style="fill:#444444;stroke:#999999;stroke-width:1;paint-order:fill stroke;" id="tile-1-0" width="20" height="10" x="75" y="35" />
    <rect style="fill:#444444;stroke:#999999;stroke-width:1;paint-order:fill stroke;" id="tile-1-3" width="20" height="10" x="75" y="95" />
    <rect style="fill:#444444;stroke:#999999;stroke-width:1;paint-order:fill stroke;" id="tile-1-4" width="20" height="10" x="75" y="115" />
    <rect style="fill:#444444;stroke:#999999;stroke-width:1;paint-order:fill stroke;" id="tile-1-5" width="20" height="10" x="75" y="135" />
    <rect style="fill:#444444;stroke:#999999;stroke-width:1;paint-order:fill stroke;" id="tile-1-6" width="20" height="10" x="75" y="155" />
    <rect style="fill:#444444;stroke:#999999;stroke-width:1;paint-order:fill stroke;" id="tile-1-7" width="20" height="10" x="75" y="175" />
    <rect style="fill:#444444;stroke:#999999;stroke-width:1;paint-order:fill stroke;" id="tile-2-0" width="20" height="10" x="115" y="35" />
    <rect style="fill:#444444;stroke:#999999;stroke-width:1;paint-order:fill stroke;" id="tile-2-3" width="20" height="10" x="115" y="95" />
    <rect style="fill:#444444;stroke:#999999;stroke-width:1;paint-order:fill stroke;" id="tile-2-4" width="20" height="10" x="115" y="115" />
    <rect style="fill:#444444;stroke:#999999;stroke-width:1;paint-order:fill stroke;" id="tile-3-0" width="20" height="10" x="155" y="35" />
    <rect style="fill:#444444;stroke:#999999;stroke-width:1;paint-order:fill stroke;" id="tile-3-6" width="20" height="10" x="155" y="155" />
</svg>
